/* XPM */
static char *d5d64f0be2fc4c319d2b2d3d127d61d0[] = {
/* columns rows colors chars-per-pixel */
"70 70 35 1 ",
"  c None",
". c #946538",
"X c #976739",
"o c #986839",
"O c #9A693A",
"+ c #9B6A3B",
"@ c #9D6B3B",
"# c #9D6B3C",
"$ c #A06D3D",
"% c #A16E3D",
"& c #A46F3D",
"* c #A5703E",
"= c #A7713E",
"- c #A8723E",
"; c #AC743F",
": c #AD753F",
"> c #AD7540",
", c #AE7540",
"< c #AD7640",
"1 c #AE7640",
"2 c #B07842",
"3 c #B17943",
"4 c #B17A44",
"5 c #B27B44",
"6 c #B37C45",
"7 c #B47D46",
"8 c #B67E48",
"9 c #B67F48",
"0 c #B77F48",
"q c #BA834C",
"w c #BB834D",
"e c #BA844C",
"r c #BB844C",
"t c #BA844D",
"y c #BB844D",
/* pixels */
"      rrrrrrrrrrrrrrrrrrrrrrrrrrrrrrrrrrrrrrrrrrrrrrrrrrrrrrrrrr      ",
"    wrrrrrrrrrrrrrrrrrrrrrrrrrrrrrrrrrrrrrrrrrrrrrrrrrrrrrrrrrrrrw    ",
"  rrr063331111111111111111111111111111111111111111111111111133360wrr  ",
" rr7111111111111111111111111111111111111111111111111111111111111117rr ",
" r311111111111111111111111111111111111111111111111111111111111111115w ",
"r51111111111111111111111111111111111111111111111111111111111111111115r",
"0111111111111111111111111111111111111111111111111111111111111111111110",
"5111111111111111111111111111111111111111111111111111111111111111111115",
"5111111111111111111111111111111111111111111111111111111111111111111111",
"3111111111111111111111111111111111111111111111111111111111111111111111",
"1111111111=@OO..........................................OO@=1111111111",
"111111111@..................................................@111111111",
"11111111&..O@@$$$$$$$$$$$$$$$$$$$$$$$$$$$$$$$$$$$$$$$$$$@@O..&11111111",
"11111111.O$$$$$$$$$$$$$$$$$$$$$$$$$$$$$$$$$$$$$$$$$$$$$$$$$$O.11111111",
"11111111O$$$$$$$$$$$$$$$$$$$$$$$$$$$$$$$$$$$$$$$$$$$$$$$$$$$$O11111111",
"1111111;#$$$$$$$$$$$$$$$$$$$$$$$$$$$$$$$$$$$$$$$$$$$$$$$$$$$$#;1111111",
"11111111$$$$$$$$$$$$$$$$$$$$$$$$$$$$$$$$$$$$$$$$$$$$$$$$$$$$$$11111111",
"1111111;$$$$$$$$$$$$$$$$$$$$$$$$$$$$$$$$$$$$$$$$$$$$$$$$$$$$$$11111111",
"11111111$$$$$$$$$$$$$$$$$$$$$$$$$$$$$$$$$$$$$$$$$$$$$$$$$$$$$$11111111",
"11111111$$$$$$$$$$$$$$$$$$$$$$$$$$$$$$$$$$$$$$$$$$$$$$$$$$$$$$11111111",
"11111111$$$$$$$$$$$$$$$$$$$$$$$$$$$$$$$$$$$$$$$$$$$$$$$$$$$$$$11111111",
"11111111$$$$$$$$$$$$$$$$$$$$$$$$$$$$$$$$$$$$$$$$$$$$$$$$$$$$$$11111111",
"11111111$$$$$$$$$$$$$$$$$$$$$$$$$$$$$$$$$$$$$$$$$$$$$$$$$$$$$$11111111",
"11111111$$$$$$$$$$$$$$$$$$$$$$$$$$$$$$$$$$$$$$$$$$$$$$$$$$$$$$11111111",
"11111111$$$$$$$$$$$$$$$$$$$$$$$$$$$$$$$$$$$$$$$$$$$$$$$$$$$$$$11111111",
"11111111$$$$$$$$$$$$$$$$$$$$$$$$$$$$$$$$$$$$$$$$$$$$$$$$$$$$$$11111111",
"11111111$$$$$$$$$$$$$$$$$$$$$$$$$$$$$$$$$$$$$$$$$$$$$$$$$$$$$$11111111",
"11111111$$$$$$$$$$$$$$$$$$$$$$$$$$$$$$$$$$$$$$$$$$$$$$$$$$$$$$11111111",
"11111111$$$$$$$$$$$$$$$$$$$$$$$$$$$$$$$$$$$$$$$$$$$$$$$$$$$$$$11111111",
"11111111$$$$$$$$$$$$$$$$$$$$$$$$$$$$$$$$$$$$$$$$$$$$$$$$$$$$$$11111111",
"11111111$$$$$$$$$$$$$$$$$$$$$$$$$$$$$$$$$$$$$$$$$$$$$$$$$$$$$$11111111",
"11111111$$$$$$$$$$$$$$$$$$$$$$$$$$$$$$$$$$$$$$$$$$$$$$$$$$$$$$11111111",
"11111111$$$$$$$$$$$$$$$$$$$$$$$$$$$$$$$$$$$$$$$$$$$$$$$$$$$$$$11111111",
"11111111$$$$$$$$$$$$$$$$$$$$$$$$$$$$$$$$$$$$$$$$$$$$$$$$$$$$$$11111111",
"11111111$$$$$$$$$$$$$$$$$$$$$$$$$$$$$$$$$$$$$$$$$$$$$$$$$$$$$$11111111",
"11111111$$$$$$$$$$$$$$$$$$$$$$$$$$$$$$$$$$$$$$$$$$$$$$$$$$$$$$11111111",
"11111111$$$$$$$$$$$$$$$$$$$$$$$$$$$$$$$$$$$$$$$$$$$$$$$$$$$$$$11111111",
"11111111$$$$$$$$$$$$$$$$$$$$$$$$$$$$$$$$$$$$$$$$$$$$$$$$$$$$$$11111111",
"11111111$$$$$$$$$$$$$$$$$$$$$$$$$$$$$$$$$$$$$$$$$$$$$$$$$$$$$$11111111",
"11111111$$$$$$$$$$$$$$$$$$$$$$$$$$$$$$$$$$$$$$$$$$$$$$$$$$$$$$11111111",
"11111111$$$$$$$$$$$$$$$$$$$$$$$$$$$$$$$$$$$$$$$$$$$$$$$$$$$$$$11111111",
"11111111$$$$$$$$$$$$$$$$$$$$$$$$$$$$$$$$$$$$$$$$$$$$$$$$$$$$$$11111111",
"11111111$$$$$$$$$$$$$$$$$$$$$$$$$$$$$$$$$$$$$$$$$$$$$$$$$$$$$$11111111",
"11111111$$$$$$$$$$$$$$$$$$$$$$$$$$$$$$$$$$$$$$$$$$$$$$$$$$$$$$11111111",
"11111111$$$$$$$$$$$$$$$$$$$$$$$$$$$$$$$$$$$$$$$$$$$$$$$$$$$$$$11111111",
"11111111$$$$$$$$$$$$$$$$$$$$$$$$$$$$$$$$$$$$$$$$$$$$$$$$$$$$$$11111111",
"11111111$$$$$$$$$$$$$$$$$$$$$$$$$$$$$$$$$$$$$$$$$$$$$$$$$$$$$$11111111",
"11111111$$$$$$$$$$$$$$$$$$$$$$$$$$$$$$$$$$$$$$$$$$$$$$$$$$$$$$11111111",
"11111111$$$$$$$$$$$$$$$$$$$$$$$$$$$$$$$$$$$$$$$$$$$$$$$$$$$$$$11111111",
"11111111$$$$$$$$$$$$$$$$$$$$$$$$$$$$$$$$$$$$$$$$$$$$$$$$$$$$$$11111111",
"11111111$$$$$$$$$$$$$$$$$$$$$$$$$$$$$$$$$$$$$$$$$$$$$$$$$$$$$$11111111",
"11111111$$$$$$$$$$$$$$$$$$$$$$$$$$$$$$$$$$$$$$$$$$$$$$$$$$$$$$11111111",
"11111111$$$$$$$$$$$$$$$$$$$$$$$$$$$$$$$$$$$$$$$$$$$$$$$$$$$$$$11111111",
"11111111$$$$$$$$$$$$$$$$$$$$$$$$$$$$$$$$$$$$$$$$$$$$$$$$$$$$$$11111111",
"11111111$$$$$$$$$$$$$$$$$$$$$$$$$$$$$$$$$$$$$$$$$$$$$$$$$$$$$$11111111",
"11111111$$$$$$$$$$$$$$$$$$$$$$$$$$$$$$$$$$$$$$$$$$$$$$$$$$$$$$11111111",
"11111111$$$$$$$$$$$$$$$$$$$$$$$$$$$$$$$$$$$$$$$$$$$$$$$$$$$$$$11111111",
"11111111$$$$$$$$$$$$$$$$$$$$$$$$$$$$$$$$$$$$$$$$$$$$$$$$$$$$$$11111111",
"11111111&$$$$$$$$$$$$$$$$$$$$$$$$$$$$$$$$$$$$$$$$$$$$$$$$$$$$&11111111",
"11111111-$$$$$$$$$$$$$$$$$$$$$$$$$$$$$$$$$$$$$$$$$$$$$$$$$$$$-11111111",
"111111111=$$$$$$$$$$$$$$$$$$$$$$$$$$$$$$$$$$$$$$$$$$$$$$$$$$=111111111",
"1111111111=$$$$$$$$$$$$$$$$$$$$$$$$$$$$$$$$$$$$$$$$$$$$$$$$=1111111111",
"1111111111111111111111111111111111111111111111111111111111111111111111",
"1111111111111111111111111111111111111111111111111111111111111111111111",
" 11111111111111111111111111111111111111111111111111111111111111111111 ",
" 11111111111111111111111111111111111111111111111111111111111111111111 ",
" 1111111111111111111111111111111111111111111111111111111111111111111  ",
"  111111111111111111111111111111111111111111111111111111111111111111  ",
"    11111111111111111111111111111111111111111111111111111111111111    ",
"     111111111111111111111111111111111111111111111111111111111111     "
};
