/* XPM */
static char *aa25b91e1de94ff4a042f8ab07bf4c9cqjerUBuiC8pVGf7e[] = {
/* columns rows colors chars-per-pixel */
"70 70 55 1 ",
"  c None",
". c #CAA202",
"X c #CDA401",
"o c #CEA501",
"O c #CDA402",
"+ c #CEA502",
"@ c #D0A702",
"# c #D3A902",
"$ c #D6AC02",
"% c #D8AD02",
"& c #D9AE02",
"* c #DDB101",
"= c #E1B401",
"- c #E1B402",
"; c #E3B602",
": c #E4B701",
"> c #E6B801",
", c #E8BA01",
"< c #EABB01",
"1 c #EABC01",
"2 c #EBBC01",
"3 c #ECBD01",
"4 c #EDBE01",
"5 c #EEBE00",
"6 c #EFBF01",
"7 c #F1C100",
"8 c #F1C101",
"9 c #F2C200",
"0 c #F4C300",
"q c #F5C400",
"w c #F6C500",
"e c #F8C600",
"r c #F9C700",
"t c #FBC900",
"y c #FDCA00",
"u c #FFCB00",
"i c #FFCC00",
"p c #FECD08",
"a c #FECF10",
"s c #FED018",
"d c #FED220",
"f c #FED328",
"g c #FED530",
"h c #FED638",
"j c #FEDB50",
"k c #FEDC55",
"l c #FEDC58",
"z c #FEDE60",
"x c #FEDF68",
"c c #FEE170",
"v c #FEE278",
"b c #FEE380",
"n c #FDE480",
"m c #FEE480",
"M c #FEE481",
/* pixels */
"                                                                      ",
"                                                                      ",
"                                                                      ",
"                                                                      ",
"                                                                      ",
"                                                                      ",
"                                                                      ",
"                                                                      ",
"                                                                      ",
"                                                                      ",
"                                                                      ",
"                                                                      ",
"                                                                      ",
"                                                                      ",
"                                                                      ",
"                                                                      ",
"                                                                      ",
"                                                                      ",
"                                                                      ",
"                             MbMMMMMMMMMM                             ",
"                           MMMMvzzzzzzvMMMM                           ",
"                         MMMlgpiiiiiiiiagzMMb                         ",
"                        bMjsiiiiiiiiiiiiiidjMM                        ",
"                       Mxdiiiiiiiiiiiiiiiiiifvb                       ",
"                      bjpiiiiiiiiiiiiiiiiiiiiaxM                      ",
"                     bliiiiiiiiiq7777qiiiiiiiipcM                     ",
"                    bxpiiiiiiq*X......X;eiiiiiisvM                    ",
"                    vpiiiiii:...X@@@@X..X:iiiiiisv                    ",
"                   Mfiiiiii:.X&;;;;;;;;&X.:iiiiiihM                   ",
"                   jiiiiii5.$;;;;;;;;;;;;$.5iiiiiiz                   ",
"                  baiiiiitX$;;;;;,qe7;;;;;$XtiiiiiaM                  ",
"                  jiiiiii:@;;;;;;eiii,;;;;;#:iiiiiik                  ",
"                  fiiiiiiX;;;;;;;iiii,;;;;;;Xiiiiiif                  ",
"                  iiiiii7$;;;;;;;iiii,;;;;;;&7iiiiii                  ",
"                  iiiiii:;;;;;;;;iiii,;;;;;;;>iiiiii                  ",
"                  iiiiii2;;;;;;;;iiii,;;;;;;;5iiiiii                  ",
"                  iiiiii7;;;;;;;;iiii,;;;;;;;7iiiiii                  ",
"                  iiiiii7;;;;;;;;iiii,;;;;;;;7iiiiii                  ",
"                  iiiiiie;;;;;;;;iiii,;;;;;;;eiiiiii                  ",
"                  iiiiiiy;;;;;;;;iiii,;;;;;;:iiiiiii                  ",
"                  iiiiiii5;;;;;;;tiii,;;;;;;5iiiiiii                  ",
"                  yiiiiiit;;;;;;;5yi7;;;;;;:yiiiiiii                  ",
"                   iiiiiii7;;;;;;;;;;;;;;;;7iiiiiii                   ",
"                   iiiiiiii5;;;;;;;;;;;;;;5iiiiiiii                   ",
"                    iiiiiiii0;;;;;;;;;;;:qiiiiiiii                    ",
"                    iiiiiiiiie,;;;;;;;;2tiiiiiiiiy                    ",
"                     iiiiiiiiiit077770tiiiiiiiiii                     ",
"                      iiiiiiiiiiiiiiiiiiiiiiiiii                      ",
"                      yiiiiiiiiiiiiiiiiiiiiiiii                       ",
"                        iiiiiiiiiiiiiiiiiiiiii                        ",
"                         iiiiiiiiiiiiiiiiiiiy                         ",
"                          yiiiiiiiiiiiiiiii                           ",
"                             iiiiiiiiiiii                             ",
"                                                                      ",
"                                                                      ",
"                                                                      ",
"                                                                      ",
"                                                                      ",
"                                                                      ",
"                                                                      ",
"                                                                      ",
"                                                                      ",
"                                                                      ",
"                                                                      ",
"                                                                      ",
"                                                                      ",
"                                                                      ",
"                                                                      ",
"                                                                      ",
"                                                                      "
};
