/* XPM */
static char *ba32e6db464c4d9adc28b1aef6a384d5iHTbpAF8oJpoeLqJ[] = {
/* columns rows colors chars-per-pixel */
"70 70 42 1 ",
"  c None",
". c #1DA6E0",
"X c #1DA7E0",
"o c #1DA6E1",
"O c #1DA7E1",
"+ c #1EA6E0",
"@ c #1EA7E0",
"# c #1EA7E1",
"$ c #22A8E1",
"% c #27AAE2",
"& c #2CACE2",
"* c #30AEE3",
"= c #3AB2E4",
"- c #3EB4E5",
"; c #41ADD9",
": c #67BCDE",
"> c #43B6E6",
", c #48B7E6",
"< c #51BBE7",
"1 c #56BDE8",
"2 c #5ABFE9",
"3 c #5FC1E9",
"4 c #64C3EA",
"5 c #68C5EA",
"6 c #69C5EA",
"7 c #68C4EB",
"8 c #69C4EB",
"9 c #69C5EB",
"0 c #79C3E0",
"q c #ACC0C1",
"w c #AEC1C2",
"e c #B4C6C7",
"r c #B6C8C8",
"t c #B9C9CA",
"y c #BBCBCB",
"u c #BDCDCD",
"i c #C4D1D2",
"p c #C8D5D5",
"a c #CAD6D6",
"s c #CCD8D8",
"d c #CFD9D9",
"f c #CFDADA",
/* pixels */
"    fffff                                                             ",
"  ffffffff                                                            ",
" ffueeeeyaf                                                           ",
" aqqqqqqqqif      5555555555                                          ",
"frqqqqqqqqqa   55555555555555555                                      ",
"iqqqqqqqqqqy 5554,=&######$*>15555                                    ",
"qqqqqqqqqqqq051*##############$=2555                                  ",
"qqqqqqqqqqqq:%###################&<555                                ",
"qqqqqqqqqqqq;######################&155                               ",
"qqqqqqqqqqqq;########################*455                             ",
"qqqqqqqqqqqq;#########################%>55                            ",
"qqqqqqqqqqqq;###########################*55                           ",
"qqqqqqqqqqqq;############################$<55                         ",
"qqqqqqqqqqqq;##############################-55                        ",
"qqqqqqqqqqqq;###############################&255                      ",
"qqqqqqqqqqqq;#################################=355                    ",
"qqqqqqqqqqqq;##################################$>455                  ",
"qqqqqqqqqqqq;####################################$>4555               ",
"qqqqqqqqqqqq;######################################$=15555            ",
"qqqqqqqqqqqq;#########################################%>3555555555    ",
"qqqqqqqqqqqq;############################################%=,155555    ",
"qqqqqqqqqqqq;#####################################################    ",
"qqqqqqqqqqqq;####################################################     ",
"qqqqqqqqqqqq;###################################################      ",
"qqqqqqqqqqqq;##################################################       ",
"qqqqqqqqqqqq;##################################################       ",
"qqqqqqqqqqqq;#################################################        ",
"qqqqqqqqqqqq;################################################         ",
"qqqqqqqqqqqq;###############################################          ",
"qqqqqqqqqqqq;#############################################            ",
"qqqqqqqqqqqq;############################################             ",
"qqqqqqqqqqqq;###########################################              ",
"qqqqqqqqqqqq;#########################################                ",
"qqqqqqqqqqqq;#############            ##############                  ",
"qqqqqqqqqqqq;##########                  #########                    ",
"qqqqqqqqqqqq;########                                                 ",
"qqqqqqqqqqqq;######                                                   ",
"qqqqqqqqqqqq;#####                                                    ",
"qqqqqqqqqqqq;####                                                     ",
"qqqqqqqqqqqq;##                                                       ",
"qqqqqqqqqqqq;#                                                        ",
"qqqqqqqqqqqq;                                                         ",
"qqqqqqqqqqqq                                                          ",
"qqqqqqqqqqqq                                                          ",
"qqqqqqqqqqqq                                                          ",
"qqqqqqqqqqqq                                                          ",
"qqqqqqqqqqqq                                                          ",
"qqqqqqqqqqqq                                                          ",
"qqqqqqqqqqqq                                                          ",
"qqqqqqqqqqqq                                                          ",
"qqqqqqqqqqqq                                                          ",
"qqqqqqqqqqqq                                                          ",
"qqqqqqqqqqqq                                                          ",
"qqqqqqqqqqqq                                                          ",
"qqqqqqqqqqqq                                                          ",
"qqqqqqqqqqqq                                                          ",
"qqqqqqqqqqqq                                                          ",
"qqqqqqqqqqqq                                                          ",
"qqqqqqqqqqqq                                                          ",
"qqqqqqqqqqqq                                                          ",
"qqqqqqqqqqqq                                                          ",
"qqqqqqqqqqqq                                                          ",
"qqqqqqqqqqqq                                                          ",
"qqqqqqqqqqqq                                                          ",
"qqqqqqqqqqqq                                                          ",
"qqqqqqqqqqqq                                                          ",
"qqqqqqqqqqqq                                                          ",
"qqqqqqqqqqqq                                                          ",
"qqqqqqqqqqqq                                                          ",
"qqqqqqqqqqqq                                                          "
};
