/* XPM */
static char *_055ed969c7f48f39a5db81fca8b1af5BizxEFMUj7WXHS3w[] = {
/* columns rows colors chars-per-pixel */
"70 70 50 1 ",
"  c None",
". c #849494",
"X c #869595",
"o c #879696",
"O c #889898",
"+ c #899898",
"@ c #8A9999",
"# c #8A9A9A",
"$ c #8B9A9A",
"% c #8B9B9B",
"& c #8C9C9C",
"* c #8E9D9D",
"= c #8F9F9F",
"- c #909F9F",
"; c #90A0A0",
": c #91A1A1",
"> c #92A2A2",
", c #93A3A3",
"< c #9BABAB",
"1 c #9DADAD",
"2 c #A1B1B1",
"3 c #A1B1B2",
"4 c #A2B2B3",
"5 c #A3B3B4",
"6 c #A3B4B5",
"7 c #A4B5B6",
"8 c #A5B6B7",
"9 c #A8B7B7",
"0 c #A5B7B8",
"q c #A6B8B9",
"w c #A7BABB",
"e c #A9BDBD",
"r c #AABDBD",
"t c #A9BDBE",
"y c #A9BFBF",
"u c #AABEBF",
"i c #AABFBF",
"p c #ABBFBF",
"a c #ABBFC0",
"s c #ACC0C1",
"d c #ADC1C2",
"f c #B3C5C6",
"g c #B4C6C7",
"h c #B5C6C7",
"j c #B6C7C8",
"k c #B7C8C9",
"l c #B8C8C9",
"z c #B9C9CA",
"x c #BACACB",
"c c #BBCBCC",
/* pixels */
"      ,,,,,,,,,,,,,,,,,,,,,,,,,,,,,,,,,,,,,,,,,,,,,,,,,,,,,,,,,,      ",
"    ,,,,,,,,,,,,,,,,,,,,,,,,,,,,,,,,,,,,,,,,,,,,,,,,,,,,,,,,,,,,,,,   ",
"  9,,&@@@XXXXXXXXXXXXXXXXXXXXXXXXXXXXXXXXXXXXXXXXXXXXXXXXXXXX@@@&,,,  ",
"  ,&XXXXXXXXXXXXXXXXXXXXXXXXXXXXXXXXXXXXXXXXXXXXXXXXXXXXXXXXXXXXXX&,, ",
" ,@XXXXXXXXXXXXXXXXXXXXXXXXXXXXXXXXXXXXXXXXXXXXXXXXXXXXXXXXXXXXXXXX@, ",
" @XXXXXXXXXXXXXXXXXXXXXXXXXXXXXXXXXXXXXXXXXXXXXXXXXXXXXXXXXXXXXXXXXX@,",
"&XXXXXXXXXXXXXXXXXXXXXXXXXXXXXXXXXXXXXXXXXXXXXXXXXXXXXXXXXXXXXXXXXXXX&",
"@XXXXXXXXXXXXXXXXXXXXXXXXXXXXXXXXXXXXXXXXXXXXXXXXXXXXXXXXXXXXXXXXXXXX@",
"XXXXXXXXXXXXXXXXXXXXXXXXXXXXXXXXXXXXXXXXXXXXXXXXXXXXXXXXXXXXXXXXXXXXX@",
"XXXXXXXXXXXXXXXXXXXXXXXXXXXXXXXXXXXXXXXXXXXXXXXXXXXXXXXXXXXXXXXXXXXXXX",
"XXXXXXXXXXXXXXXXXXXXXXXXXXXXXXXXXXXXXXXXXXXXXXXXXXXXXXXXXXXXXXXXXXXXXX",
"XXXXXXXXXXXXXXXXXXXXXXXXXXXXXXXXXXXXXXXXXXXXXXXXXXXXXXXXXXXXXXXXXXXXXX",
"XXXXXXXXXXXXXXXXXXXXXXXXXXXXXXXXXXXXXXXXXXXXXXXXXXXXXXXXXXXXXXXXXXXXXX",
"XXXXXXXXXXXXXXXXXXXXXXXXXXXXXXXXXXXXXXXXXXXXXXXXXXXXXXXXXXXXXXXXXXXXXX",
"XXXXXXXXXXXXXXXXXXXXXXXXXXXXXXXXXXXXXXXXXXXXXXXXXXXXXXXXXXXXXXXXXXXXXX",
"XXXXXXXXXXXXXXXXXXXXXXXXXXXXXXXXXXXXXXXXXXXXXXXXXXXXXXXXXXXXXXXXXXXXXX",
"XXXXXXXXXXXXXXXXXXXXXXXXXXXXXXXXXXXXXXXXXXXXXXXXXXXXXXXXXXXXXXXXXXXXXX",
"XXXXXXXXXXXXXXXXXXXXXXXXXXXXXXXXXXXXXXXXXXXXXXXXXXXXXXXXXXXXXXXXXXXXXX",
"XXXXXXXXXXXXXXXXXXXXXXXXXXXXXXXXXXXXXXXXXXXXXXXXXXXXXXXXXXXXXXXXXXXXXX",
"XXXXXXXXXXXXXXXXXXXXXXXXXXXXXXXXXXXXXXXXXXXXXXXXXXXXXXXXXXXXXXXXXXXXXX",
"@XXXXXXXXXXXXXXXXXXXXXXXXXXXXXXXXXXXXXXXXXXXXXXXXXXXXXXXXXXXXXXXXXXXX@",
"-XXXXXXXXXXXXXXXXXXXXXXXXXXXXXXXXX-&XXXXXXXXXXXXXXXXXXXXXXXXXXXXXXXXX-",
"1XXXXXXXXXXXXXXXXXXXXXXXXXXXXXXXXX1<XXXXXXXXXXXXXXXXXXXXXXXXXXXXXXXXX1",
"21&XXXXXXXXXXXXXXXXXXXXXXXXXXXXX@<221,XXXXXXXXXXXXXXXXXXXXXXXXXXXXX&12",
"2222222222222222222222222222222222222222222222222222222222222222222222",
"5222222222222222222222222222222222222222222222222222222222222222222225",
"8222222222222222222222222222222222882222222222222222222222222222222228",
"u222222222222222222222222222222222uu222222222222222222222222222222222u",
"su6222222222222222222222222222222ussu2222222222222222222222222222226us",
"ssssssssccccccccccccccssssssssssssssssssssssssssssssssssssssssssssssss",
"ssssssssccccccccccccccssssssssssssssssssssssssssssssssssssssssssssssss",
"ssssssssccccccccccccccssssssssssssssssssssssssssssssssssssssssssssssss",
"sssssssslcccccccccccclssssssssssssssssssssssssssssssssssssssssssssssss",
"ssssssssfccccccccccccfssssssssssssssssssssssssssssssssssssssssssssssss",
"ssssssssshcccccccccchsssssssssssssssssssssssssssssssssssssssssssssssss",
"ssssssssssssssssssssssssssssssssssssssssssssssssssssssssssssssssssssss",
"ssssssssssssssssssssssssssssssssssssssssssssssssssssssssssssssssssssss",
"sssssssu86222268usssssssssssssssssssssssssssssssssssssssssssssssssssss",
"sssssss2222222222sssssssssssssssssssssssssssssssssssssssssssssssssssss",
"ssssssa2222222222sssssssssssssssssssssssssssssssssssssssssssssssssssss",
"sssssss2222222222sssssssssssssssssssssssssssssssssssssssssssssssssssss",
"sssssss2222222222sssssssssssssssssssssssssssssssssssssssssssssssssssss",
"sssssss2222222222ssssssssssssssssssssssssssssssw66222222266wssssssssss",
"sssssss2222222222sssssssssssssssssssssssssssssw2222222222222wsssssssss",
"sssssss2222222222sssssssssssssssssssssssssssss222222222222222sssssssss",
"sssssss5222222226sssssssssssssssssssssssssssss222222222222222assssssss",
"sssssssu22222222usssssssssssssssssssssssssssss222222222222222sssssssss",
"ssssssssssssssssssssssssssssssssssssssssssssss222222222222222sssssssss",
"ssssssssssssssssssssssssssssssssssssssssssssss222222222222222sssssssss",
"ssssssssssssssssssssssssssssssssssssssssssssss222222222222222sssssssss",
"sssssssssssssssssssssssssssssssshklccccclkhsss222222222222222sssssssss",
"ssssssssssssssssssssssssssssssskccccccccccckss222222222222222sssssssss",
"ssssssssssssssssssssssssssssssscccccccccccccss222222222222222sssssssss",
"ssssssssssssssssssssssssssssssscccccccccccccss222222222222222sssssssss",
"ssssssssssssssssssssssssssssssscccccccccccccss222222222222222sssssssss",
"ssssssssssssssssssssssssssssssscccccccccccccssw2222222222222wsssssssss",
"ssssssssssssssssssssssssssssssscccccccccccccsss0222222222220ssssssssss",
"ssssssssssssssssssssssssssssssscccccccccccccssssssssssssssssssssssssss",
"ssssssssssssssssssssssssssssssscccccccccccccssssssssssssssssssssssssss",
"ssssssssssssssssssssssssssssssscccccccccccccssssssssssssssssssssssssss",
"ssssssssssssssssssssssssssssssslccccccccccccssssssssssssssssssssssssss",
"ssssssssssssssssssssssssssssssshcccccccccccjssssssssssssssssssssssssss",
"ussssssssssssssssssssssssssssssskccccccccclsssssssssssssssssssssssssss",
"ussssssssssssssssssssssssssssssssssssssssssssssssssssssssssssssssssssu",
" ssssssssssssssssssssssssssssssssssssssssssssssssssssssssssssssssssss ",
" ssssssssssssssssssssssssssssssssssssssssssssssssssssssssssssssssssss ",
" ussssssssssssssssssssssssssssssssssssssssssssssssssssssssssssssssss  ",
"  ussssssssssssssssssssssssssssssssssssssssssssssssssssssssssssssssu  ",
"    ussssssssssssssssssssssssssssssssssssssssssssssssssssssssssssu    ",
"     uussssssssssssssssssssssssssssssssssssssssssssssssssssssssuu     "
};
